<svg width="512" height="512" viewBox="0 0 512 512">
  <path fill="#7A6856" d="M145.126365,265.019934 L289.50078,265.019934 C329.354134,265.019934 361.687988,232.645339 361.687988,192.74177 L385.75039,192.74177 C438.838066,192.74177 482,149.525451 482,96.3708849 C482,43.2163187 438.838066,0 385.75039,0 L90.9859594,0 C80.9850234,0 72.9391576,8.05600366 72.9391576,18.0695409 L72.9391576,192.74177 C72.9391576,232.645339 105.273011,265.019934 145.126365,265.019934 Z M385.75039,48.1854425 C412.294228,48.1854425 433.875195,69.7936018 433.875195,96.3708849 C433.875195,122.948168 412.294228,144.556327 385.75039,144.556327 L361.687988,144.556327 L361.687988,48.1854425 L385.75039,48.1854425 Z M421.618409,337.298097 L37.0711388,337.298097 C1.27831513,337.298097 -8.79781591,289.112655 10.000936,289.112655 L448.613417,289.112655 C467.412168,289.112655 457.486427,337.298097 421.618409,337.298097 L421.618409,337.298097 Z" transform="translate(15 87)"/>
</svg>
