<?xml version="1.0" standalone="no"?>
<!DOCTYPE svg PUBLIC "-//W3C//DTD SVG 20010904//EN"
 "http://www.w3.org/TR/2001/REC-SVG-20010904/DTD/svg10.dtd">
<svg version="1.0" xmlns="http://www.w3.org/2000/svg"
 width="1282.000000pt" height="1282.000000pt" viewBox="0 0 1282.000000 1282.000000"
 preserveAspectRatio="xMidYMid meet">
<metadata>
Created by potrace 1.11, written by Peter Selinger 2001-2013
</metadata>
<g transform="translate(0.000000,1282.000000) scale(0.100000,-0.100000)"
fill="#000000" stroke="none">
<path d="M2310 10879 c-19 -6 -49 -17 -67 -25 -17 -7 -34 -14 -38 -14 -28 0
-185 -143 -185 -169 0 -5 -4 -11 -8 -13 -5 -1 -22 -34 -37 -73 -23 -57 -29
-88 -31 -169 -2 -54 -5 -100 -7 -102 -2 -2 -1 -25 3 -52 3 -26 3 -58 0 -70 -3
-12 -3 -67 0 -122 3 -55 3 -110 0 -122 -4 -13 -3 -42 0 -66 4 -23 4 -45 0 -47
-4 -2 -4 -26 0 -52 3 -27 3 -59 0 -71 -3 -12 -3 -67 0 -122 3 -55 3 -110 0
-122 -4 -13 -3 -42 0 -66 4 -23 3 -45 -2 -48 -4 -3 -6 -9 -3 -14 4 -7 6 -71 4
-130 0 -8 -1 -224 0 -480 0 -256 -1 -472 -1 -480 0 -24 1 -231 2 -274 1 -22 3
-43 6 -47 2 -4 1 -10 -4 -13 -5 -3 -6 -27 -2 -53 3 -27 3 -59 0 -71 -3 -12 -3
-67 0 -122 3 -55 3 -110 0 -122 -4 -13 -3 -42 0 -66 4 -23 3 -45 -2 -48 -4 -3
-6 -9 -3 -14 4 -7 6 -71 4 -130 0 -8 -1 -224 0 -480 0 -256 -1 -472 -1 -480 0
-24 1 -231 2 -274 1 -22 3 -43 6 -47 2 -4 0 -10 -6 -14 -6 -4 -8 -10 -6 -14 5
-8 6 -41 7 -186 0 -107 6 -218 13 -260 12 -70 19 -121 20 -140 1 -11 4 -22 8
-25 3 -3 9 -21 11 -40 3 -19 6 -35 7 -35 1 0 3 -10 6 -22 13 -73 118 -344 136
-351 4 -2 8 -10 8 -17 0 -8 13 -37 30 -65 17 -28 30 -55 30 -60 0 -6 4 -10 9
-10 5 0 14 -14 21 -30 7 -17 16 -30 20 -30 4 0 13 -14 20 -30 7 -17 15 -30 19
-30 3 0 17 -17 31 -38 47 -70 223 -254 308 -322 24 -19 53 -42 63 -51 11 -9
54 -39 97 -66 111 -71 131 -83 138 -82 4 0 10 -3 13 -8 6 -8 156 -83 168 -83
3 0 19 -6 36 -14 55 -25 191 -68 257 -81 8 -2 15 -4 15 -5 0 -3 77 -17 140
-26 11 -1 20 -3 20 -4 0 -14 4242 -21 4352 -7 28 3 96 16 150 28 54 12 106 22
116 22 9 1 17 5 17 9 0 4 8 8 18 8 16 0 77 19 152 48 14 5 28 10 32 11 17 4
130 60 145 72 9 8 17 12 17 9 2 -11 227 128 283 176 12 11 37 30 55 44 48 37
218 207 263 265 22 28 42 52 45 55 3 3 19 25 35 50 17 25 35 51 42 58 6 6 15
21 18 32 3 11 10 20 15 20 4 0 11 11 14 25 4 14 11 25 16 25 6 0 10 9 10 19 0
11 3 21 8 23 10 4 82 154 82 171 0 7 4 17 9 22 10 12 71 188 77 225 3 14 8 34
11 45 8 23 8 22 22 100 17 94 21 133 26 239 3 55 6 100 7 102 2 1 194 4 428 7
234 3 443 7 465 10 22 2 65 8 95 11 60 8 95 13 95 16 0 1 11 3 25 5 14 1 48 8
75 15 28 6 58 13 68 15 39 8 173 46 192 54 20 9 115 44 125 47 27 6 261 113
270 124 3 3 30 18 60 34 30 16 62 35 71 42 8 8 19 14 23 14 6 0 98 60 141 93
55 41 150 117 190 152 109 94 255 247 255 266 0 7 3 10 6 6 7 -7 71 70 80 96
4 9 10 17 14 17 5 0 19 17 31 38 13 20 26 39 30 42 12 9 148 231 155 254 3 11
12 28 19 36 8 8 15 22 17 30 2 8 6 17 9 20 22 20 152 363 141 374 -3 3 1 6 8
6 7 0 11 3 7 6 -3 3 1 23 8 45 8 21 12 39 10 39 -2 0 2 18 10 40 8 22 14 43
14 45 0 3 3 19 6 36 4 17 8 40 10 52 2 12 6 37 9 55 12 70 17 100 23 167 10
95 9 423 0 510 -5 39 -9 81 -11 95 -6 52 -28 176 -37 200 -4 14 -11 41 -14 60
-6 38 -13 65 -15 65 -1 0 -3 7 -5 15 -4 20 -60 188 -76 225 -6 17 -13 35 -14
41 -8 37 -153 323 -193 382 -6 9 -32 48 -57 85 -61 93 -140 196 -200 261 -99
109 -128 139 -186 191 -115 104 -133 120 -199 168 -36 27 -73 55 -83 63 -9 8
-19 14 -21 14 -3 0 -31 17 -63 38 -32 21 -74 47 -93 58 -19 10 -42 24 -50 29
-14 10 -190 93 -270 128 -69 30 -253 89 -353 114 -96 23 -115 27 -184 37 -16
2 -44 7 -63 10 -19 4 -57 10 -85 13 -82 11 -8185 13 -8225 2z m8135 -1282 c17
-2 44 -7 60 -11 17 -3 39 -8 50 -10 44 -8 212 -69 265 -96 80 -41 169 -96 202
-125 15 -14 31 -25 35 -25 17 0 213 -203 213 -220 0 -6 7 -13 15 -16 8 -4 15
-10 15 -14 0 -4 16 -32 36 -61 76 -112 154 -306 180 -444 3 -16 8 -43 11 -60
3 -16 6 -56 7 -87 0 -32 5 -58 9 -58 5 0 5 -4 2 -10 -3 -5 -8 -52 -11 -102 -4
-92 -6 -109 -19 -178 -7 -42 -45 -171 -53 -185 -4 -5 -7 -16 -9 -24 -1 -8 -15
-42 -32 -76 -17 -34 -31 -67 -31 -73 0 -6 -4 -12 -8 -14 -4 -1 -21 -25 -37
-53 -15 -27 -37 -59 -47 -70 -11 -11 -19 -23 -19 -27 1 -5 -7 -16 -16 -26 -10
-10 -36 -38 -59 -63 -110 -118 -235 -213 -374 -283 -50 -25 -90 -43 -90 -41 0
2 -25 -7 -55 -21 -31 -13 -71 -25 -90 -27 -19 -1 -35 -6 -35 -11 0 -4 -6 -6
-14 -3 -8 3 -17 3 -20 -1 -4 -3 -12 -7 -19 -8 -7 -1 -28 -5 -47 -9 -19 -4
-216 -10 -436 -12 l-401 -5 -5 32 c-3 17 -2 33 2 35 4 2 4 24 0 47 -3 24 -4
53 0 66 3 12 3 67 0 122 -3 55 -3 110 0 122 3 12 3 44 0 71 -4 26 -4 50 -1 52
3 2 4 38 1 80 -3 42 -2 79 1 81 3 2 3 23 -1 46 -3 24 -4 53 0 66 3 12 3 67 0
122 -3 55 -3 110 0 122 3 12 3 44 0 71 -4 26 -4 50 -1 52 3 2 4 38 1 80 -3 42
-2 79 1 81 3 2 3 23 -1 46 -3 24 -4 53 0 66 3 12 3 67 0 122 -3 55 -3 110 0
122 3 12 3 44 0 71 -4 26 -4 50 -1 52 3 2 4 38 1 80 -3 42 -2 79 3 82 4 2 5 8
3 12 -3 4 -5 25 -6 47 -1 55 -2 256 -1 274 0 8 0 66 0 128 l0 114 398 -6 c219
-3 412 -7 428 -9z"/>
<path d="M171 3189 c-58 -27 -114 -91 -127 -144 -2 -5 -6 -21 -9 -35 -4 -14
-8 -50 -10 -80 -2 -31 -4 -60 -5 -65 -2 -6 -1 -12 0 -15 1 -3 3 -18 5 -35 7
-79 10 -95 18 -95 4 0 6 -4 2 -10 -6 -10 32 -138 48 -157 5 -7 6 -13 2 -13 -5
0 0 -9 10 -20 10 -11 15 -20 11 -20 -3 0 4 -19 16 -42 47 -88 105 -165 183
-244 148 -151 305 -234 515 -273 53 -9 10487 -7 10550 2 30 5 63 13 73 18 9 5
17 7 17 4 0 -12 201 72 208 88 2 4 8 7 14 7 12 0 95 57 129 90 14 14 41 39 60
56 39 36 65 65 99 114 13 19 27 37 30 40 5 5 24 38 54 95 20 38 58 126 60 140
1 5 8 20 14 32 7 13 11 23 8 23 -3 0 0 15 5 33 17 56 23 110 23 202 -1 104 -5
126 -33 186 -26 56 -46 78 -96 109 l-40 25 -5895 2 -5895 2 -44 -20z"/>
</g>
</svg>
